# xmcd
#
# Track frame offsets: 
#        150
#        14565
#        27640
#        41057
#        54917
#        69580
#        82990
#        96967
#        110945
#        125182
#        139237
#        153312
#        167365
#        182022
#        196667
#        208325
#        222030
#        236505
#        251157
#        264812
#        278642
#        292572
#        303565
#        317072
#
# Disc length: 4412 seconds
#
# Revision: 0
# Processed by: cddbd v1.5.2PL0 Copyright (c) Steve Scherf et al.
# Submitted via: ExactAudioCopyFreeDBPlugin 1.0
#
DISCID=5c113a18
DTITLE=Peetie Wheatstraw - Complete Recorded Works Vol. 5 (1937-1938)
DYEAR=1994
DGENRE=Blues
TTITLE0=Crapshooter's Blues
TTITLE1=Would You Would You Mama
TTITLE2=Give Me Black or Brown
TTITLE3=Working on the Project
TTITLE4=Sick Bed Blues
TTITLE5=I'm Gonna Cut Out Everything
TTITLE6=New Working on the Project
TTITLE7=Baby Lou, Baby Lou
TTITLE8=Devilment Blues
TTITLE9=Third Street's Going Down
TTITLE10=304 Blues
TTITLE11=The Wrong Woman (Lost My Job on the Project)
TTITLE12=Hard Headed Black Gal
TTITLE13=Banana Man
TTITLE14=Shack Bully Stomp
TTITLE15=Road Tramp Blues
TTITLE16=Sweet Lucille
TTITLE17=Saturday Night Blues
TTITLE18=Good Little Thing
TTITLE19=Cake Alley
TTITLE20=What More Can a Man Do?
TTITLE21=Truckin' Thru Traffic
TTITLE22=Hot Springs Blues (Skin and Bones)
TTITLE23=A Man Ain't Nothin' but a Fool
EXTD=
EXTT0=
EXTT1=
EXTT2=
EXTT3=
EXTT4=
EXTT5=
EXTT6=
EXTT7=
EXTT8=
EXTT9=
EXTT10=
EXTT11=
EXTT12=
EXTT13=
EXTT14=
EXTT15=
EXTT16=
EXTT17=
EXTT18=
EXTT19=
EXTT20=
EXTT21=
EXTT22=
EXTT23=
PLAYORDER=
